<svg width="600" height="600" xmlns="http://www.w3.org/2000/svg">

 <g>
  <title>Layer 1</title>
  <g>
   <path d="m154.98549,104.30905c58.695,44.217 121.837,133.856 145.013,181.961c23.176,-48.105 86.322,-137.744 145.016,-181.961c42.361,-31.897 110.985,-56.584 110.985,21.96c0,15.681 -8.962,131.776 -14.223,150.628c-18.272,65.516 -84.873,82.228 -144.112,72.116c103.55,17.68 129.889,76.238 73,134.8c-108.04,111.223 -155.288,-27.905 -167.385,-63.554c-3.489,-10.262 -2.991,-10.498 -6.561,0c-12.098,35.649 -59.342,174.777 -167.382,63.554c-56.89,-58.562 -30.551,-117.12 72.999,-134.8c-59.239,10.112 -125.84,-6.6 -144.112,-72.116c-5.261,-18.852 -14.223,-134.947 -14.223,-150.628c0,-78.544 68.633,-53.857 110.985,-21.96z" fill-rule="nonzero" fill="#fb5a38"/>
  </g>
 </g>
</svg>